<?xml version="1.0" encoding="utf-8"?>

<svg width="0" height="0" class="hidden" xmlns="http://www.w3.org/2000/svg">

  <symbol fill="none" xmlns="http://www.w3.org/2000/svg" viewBox="0 0 448 512" id="bars">
    <path fill="currentColor" d="M0 96C0 78.3 14.3 64 32 64l384 0c17.7 0 32 14.3 32 32s-14.3 32-32 32L32 128C14.3 128 0 113.7 0 96zM0 256c0-17.7 14.3-32 32-32l384 0c17.7 0 32 14.3 32 32s-14.3 32-32 32L32 288c-17.7 0-32-14.3-32-32zM448 416c0 17.7-14.3 32-32 32L32 448c-17.7 0-32-14.3-32-32s14.3-32 32-32l384 0c17.7 0 32 14.3 32 32z" />
  </symbol>

  <symbol fill="none" xmlns="http://www.w3.org/2000/svg" viewBox="0 0 512 512" id="arrows_udlr">
    <path fill="currentColor" d="M278.6 9.4c-12.5-12.5-32.8-12.5-45.3 0l-64 64c-12.5 12.5-12.5 32.8 0 45.3s32.8 12.5 45.3 0l9.4-9.4L224 224l-114.7 0 9.4-9.4c12.5-12.5 12.5-32.8 0-45.3s-32.8-12.5-45.3 0l-64 64c-12.5 12.5-12.5 32.8 0 45.3l64 64c12.5 12.5 32.8 12.5 45.3 0s12.5-32.8 0-45.3l-9.4-9.4L224 288l0 114.7-9.4-9.4c-12.5-12.5-32.8-12.5-45.3 0s-12.5 32.8 0 45.3l64 64c12.5 12.5 32.8 12.5 45.3 0l64-64c12.5-12.5 12.5-32.8 0-45.3s-32.8-12.5-45.3 0l-9.4 9.4L288 288l114.7 0-9.4 9.4c-12.5 12.5-12.5 32.8 0 45.3s32.8 12.5 45.3 0l64-64c12.5-12.5 12.5-32.8 0-45.3l-64-64c-12.5-12.5-32.8-12.5-45.3 0s-12.5 32.8 0 45.3l9.4 9.4L288 224l0-114.7 9.4 9.4c12.5 12.5 32.8 12.5 45.3 0s12.5-32.8 0-45.3l-64-64z"/>
  </symbol>

  <symbol fill="none" xmlns="http://www.w3.org/2000/svg" viewBox="0 0 512 512" id="arrows_rotate">
    <path fill="currentColor" d="M105.1 202.6c7.7-21.8 20.2-42.3 37.8-59.8c62.5-62.5 163.8-62.5 226.3 0L386.3 160 352 160c-17.7 0-32 14.3-32 32s14.3 32 32 32l111.5 0c0 0 0 0 0 0l.4 0c17.7 0 32-14.3 32-32l0-112c0-17.7-14.3-32-32-32s-32 14.3-32 32l0 35.2L414.4 97.6c-87.5-87.5-229.3-87.5-316.8 0C73.2 122 55.6 150.7 44.8 181.4c-5.9 16.7 2.9 34.9 19.5 40.8s34.9-2.9 40.8-19.5zM39 289.3c-5 1.5-9.8 4.2-13.7 8.2c-4 4-6.7 8.8-8.1 14c-.3 1.2-.6 2.5-.8 3.8c-.3 1.7-.4 3.4-.4 5.1L16 432c0 17.7 14.3 32 32 32s32-14.3 32-32l0-35.1 17.6 17.5c0 0 0 0 0 0c87.5 87.4 229.3 87.4 316.7 0c24.4-24.4 42.1-53.1 52.9-83.8c5.9-16.7-2.9-34.9-19.5-40.8s-34.9 2.9-40.8 19.5c-7.7 21.8-20.2 42.3-37.8 59.8c-62.5 62.5-163.8 62.5-226.3 0l-.1-.1L125.6 352l34.4 0c17.7 0 32-14.3 32-32s-14.3-32-32-32L48.4 288c-1.6 0-3.2 .1-4.8 .3s-3.1 .5-4.6 1z"/>
  </symbol>

  <symbol fill="none" xmlns="http://www.w3.org/2000/svg" viewBox="0 0 512 512" id="history_solid">
    <path fill="currentColor" d="M504 255.531c.253 136.64-111.18 248.372-247.82 248.468-59.015.042-113.223-20.53-155.822-54.911-11.077-8.94-11.905-25.541-1.839-35.607l11.267-11.267c8.609-8.609 22.353-9.551 31.891-1.984C173.062 425.135 212.781 440 256 440c101.705 0 184-82.311 184-184 0-101.705-82.311-184-184-184-48.814 0-93.149 18.969-126.068 49.932l50.754 50.754c10.08 10.08 2.941 27.314-11.313 27.314H24c-8.837 0-16-7.163-16-16V38.627c0-14.254 17.234-21.393 27.314-11.314l49.372 49.372C129.209 34.136 189.552 8 256 8c136.81 0 247.747 110.78 248 247.531zm-180.912 78.784l9.823-12.63c8.138-10.463 6.253-25.542-4.21-33.679L288 256.349V152c0-13.255-10.745-24-24-24h-16c-13.255 0-24 10.745-24 24v135.651l65.409 50.874c10.463 8.137 25.541 6.253 33.679-4.21z"></path>
  </symbol>

  <symbol fill="none" xmlns="http://www.w3.org/2000/svg" viewBox="0 0 448 512" id="save">
    <path fill="currentColor" d="M433.941 129.941l-83.882-83.882A48 48 0 0 0 316.118 32H48C21.49 32 0 53.49 0 80v352c0 26.51 21.49 48 48 48h352c26.51 0 48-21.49 48-48V163.882a48 48 0 0 0-14.059-33.941zM272 80v80H144V80h128zm122 352H54a6 6 0 0 1-6-6V86a6 6 0 0 1 6-6h42v104c0 13.255 10.745 24 24 24h176c13.255 0 24-10.745 24-24V83.882l78.243 78.243a6 6 0 0 1 1.757 4.243V426a6 6 0 0 1-6 6zM224 232c-48.523 0-88 39.477-88 88s39.477 88 88 88 88-39.477 88-88-39.477-88-88-88zm0 128c-22.056 0-40-17.944-40-40s17.944-40 40-40 40 17.944 40 40-17.944 40-40 40z"></path>
  </symbol>

  <symbol fill="none" xmlns="http://www.w3.org/2000/svg" viewBox="0 0 512 512" id="circle_arrow_down">
    <path fill="currentColor" d="M256 0a256 256 0 1 0 0 512A256 256 0 1 0 256 0zM127 297c-9.4-9.4-9.4-24.6 0-33.9s24.6-9.4 33.9 0l71 71L232 120c0-13.3 10.7-24 24-24s24 10.7 24 24l0 214.1 71-71c9.4-9.4 24.6-9.4 33.9 0s9.4 24.6 0 33.9L273 409c-9.4 9.4-24.6 9.4-33.9 0L127 297z"/>
  </symbol>

    <symbol fill="none" xmlns="http://www.w3.org/2000/svg" viewBox="0 0 512 512" id="circle_arrow_up">
        <path fill="currentColor" d="M256 512A256 256 0 1 0 256 0a256 256 0 1 0 0 512zM385 215c9.4 9.4 9.4 24.6 0 33.9s-24.6 9.4-33.9 0l-71-71L280 392c0 13.3-10.7 24-24 24s-24-10.7-24-24l0-214.1-71 71c-9.4 9.4-24.6 9.4-33.9 0s-9.4-24.6 0-33.9L239 103c9.4-9.4 24.6-9.4 33.9 0L385 215z"/>
    </symbol>

  <symbol fill="none" xmlns="http://www.w3.org/2000/svg" viewBox="0 0 576 512" id="eye">
    <path fill="currentColor" d="M288 32c-80.8 0-145.5 36.8-192.6 80.6C48.6 156 17.3 208 2.5 243.7c-3.3 7.9-3.3 16.7 0 24.6C17.3 304 48.6 356 95.4 399.4C142.5 443.2 207.2 480 288 480s145.5-36.8 192.6-80.6c46.8-43.5 78.1-95.4 93-131.1c3.3-7.9 3.3-16.7 0-24.6c-14.9-35.7-46.2-87.7-93-131.1C433.5 68.8 368.8 32 288 32zM144 256a144 144 0 1 1 288 0 144 144 0 1 1 -288 0zm144-64c0 35.3-28.7 64-64 64c-7.1 0-13.9-1.2-20.3-3.3c-5.5-1.8-11.9 1.6-11.7 7.4c.3 6.9 1.3 13.8 3.2 20.7c13.7 51.2 66.4 81.6 117.6 67.9s81.6-66.4 67.9-117.6c-11.1-41.5-47.8-69.4-88.6-71.1c-5.8-.2-9.2 6.1-7.4 11.7c2.1 6.4 3.3 13.2 3.3 20.3z" />
  </symbol>

  <symbol fill="none" xmlns="http://www.w3.org/2000/svg" viewBox="0 0 640 512" id="eye_slash">
    <path fill="currentColor" d="M38.8 5.1C28.4-3.1 13.3-1.2 5.1 9.2S-1.2 34.7 9.2 42.9l592 464c10.4 8.2 25.5 6.3 33.7-4.1s6.3-25.5-4.1-33.7L525.6 386.7c39.6-40.6 66.4-86.1 79.9-118.4c3.3-7.9 3.3-16.7 0-24.6c-14.9-35.7-46.2-87.7-93-131.1C465.5 68.8 400.8 32 320 32c-68.2 0-125 26.3-169.3 60.8L38.8 5.1zM223.1 149.5C248.6 126.2 282.7 112 320 112c79.5 0 144 64.5 144 144c0 24.9-6.3 48.3-17.4 68.7L408 294.5c8.4-19.3 10.6-41.4 4.8-63.3c-11.1-41.5-47.8-69.4-88.6-71.1c-5.8-.2-9.2 6.1-7.4 11.7c2.1 6.4 3.3 13.2 3.3 20.3c0 10.2-2.4 19.8-6.6 28.3l-90.3-70.8zM373 389.9c-16.4 6.5-34.3 10.1-53 10.1c-79.5 0-144-64.5-144-144c0-6.9 .5-13.6 1.4-20.2L83.1 161.5C60.3 191.2 44 220.8 34.5 243.7c-3.3 7.9-3.3 16.7 0 24.6c14.9 35.7 46.2 87.7 93 131.1C174.5 443.2 239.2 480 320 480c47.8 0 89.9-12.9 126.2-32.5L373 389.9z"/>
  </symbol>

  <symbol fill="none" xmlns="http://www.w3.org/2000/svg" viewBox="0 0 448 512" id="minus">
    <path fill="currentColor" d="M432 256c0 17.7-14.3 32-32 32L48 288c-17.7 0-32-14.3-32-32s14.3-32 32-32l352 0c17.7 0 32 14.3 32 32z"/>
  </symbol>

  <symbol fill="none" xmlns="http://www.w3.org/2000/svg" viewBox="0 0 448 512" id="plus">
      <path fill="currentColor" d="M256 80c0-17.7-14.3-32-32-32s-32 14.3-32 32l0 144L48 224c-17.7 0-32 14.3-32 32s14.3 32 32 32l144 0 0 144c0 17.7 14.3 32 32 32s32-14.3 32-32l0-144 144 0c17.7 0 32-14.3 32-32s-14.3-32-32-32l-144 0 0-144z"/>
  </symbol>

  <symbol fill="none" xmlns="http://www.w3.org/2000/svg" viewBox="0 0 128 128" id="cube">
      <path fill="currentColor" d="M121.059 29.509 64.596 0 6.919 29.509V95.51L67.087 128l53.993-32.554V29.53l-.021-.021zM60.7 117.291 13.307 91.699V39.856L60.7 63.574v53.717zm3.321-59.21L14.009 33.065 64.554 7.154l49.458 25.89-49.991 25.037zm50.672 33.682-47.606 28.785V63.659l47.606-23.803v51.907z"/>
  </symbol>

  <symbol fill="none" xmlns="http://www.w3.org/2000/svg" viewBox="0 0 448 512" id="expand">
      <path fill="currentColor" d="M32 32C14.3 32 0 46.3 0 64l0 96c0 17.7 14.3 32 32 32s32-14.3 32-32l0-64 64 0c17.7 0 32-14.3 32-32s-14.3-32-32-32L32 32zM64 352c0-17.7-14.3-32-32-32s-32 14.3-32 32l0 96c0 17.7 14.3 32 32 32l96 0c17.7 0 32-14.3 32-32s-14.3-32-32-32l-64 0 0-64zM320 32c-17.7 0-32 14.3-32 32s14.3 32 32 32l64 0 0 64c0 17.7 14.3 32 32 32s32-14.3 32-32l0-96c0-17.7-14.3-32-32-32l-96 0zM448 352c0-17.7-14.3-32-32-32s-32 14.3-32 32l0 64-64 0c-17.7 0-32 14.3-32 32s14.3 32 32 32l96 0c17.7 0 32-14.3 32-32l0-96z"/>
  </symbol>

  <symbol fill="none" xmlns="http://www.w3.org/2000/svg" viewBox="0 0 24 24" stroke="currentColor"  stroke-width="2"  stroke-linecap="round"  stroke-linejoin="round" id="dimensions">
      <path stroke="none" d="M0 0h24v24H0z" fill="none"/>
      <path d="M3 5h11" />
      <path d="M12 7l2 -2l-2 -2" />
      <path d="M5 3l-2 2l2 2" />
      <path d="M19 10v11" />
      <path d="M17 19l2 2l2 -2" />
      <path d="M21 12l-2 -2l-2 2" />
      <path d="M3 10m0 2a2 2 0 0 1 2 -2h7a2 2 0 0 1 2 2v7a2 2 0 0 1 -2 2h-7a2 2 0 0 1 -2 -2z" />
  </symbol>

  <symbol fill="none" xmlns="http://www.w3.org/2000/svg" viewBox="0 0 24 24" id="triangle_filled">
      <path fill="currentColor" d="M12 1.67a2.914 2.914 0 0 0 -2.492 1.403l-8.11 13.537a2.914 2.914 0 0 0 2.484 4.385h16.225a2.914 2.914 0 0 0 2.503 -4.371l-8.116 -13.546a2.917 2.917 0 0 0 -2.494 -1.408z" />
  </symbol>

  <symbol fill="none" xmlns="http://www.w3.org/2000/svg" viewBox="0 0 24 24" stroke="currentColor"  stroke-width="2"  stroke-linecap="round"  stroke-linejoin="round" id="triangle">
      <path fill="none" d="M10.363 3.591l-8.106 13.534a1.914 1.914 0 0 0 1.636 2.871h16.214a1.914 1.914 0 0 0 1.636 -2.87l-8.106 -13.536a1.914 1.914 0 0 0 -3.274 0z" />
  </symbol>

  <symbol fill="none" xmlns="http://www.w3.org/2000/svg" viewBox="0 0 512 512" id="circle_check">
      <path fill="currentColor" d="M256 48a208 208 0 1 1 0 416 208 208 0 1 1 0-416zm0 464A256 256 0 1 0 256 0a256 256 0 1 0 0 512zM369 209c9.4-9.4 9.4-24.6 0-33.9s-24.6-9.4-33.9 0l-111 111-47-47c-9.4-9.4-24.6-9.4-33.9 0s-9.4 24.6 0 33.9l64 64c9.4 9.4 24.6 9.4 33.9 0L369 209z"/>
  </symbol>

  <symbol fill="none" xmlns="http://www.w3.org/2000/svg" viewBox="0 0 512 512" id="circle_close">
      <path fill="currentColor" d="M256 48a208 208 0 1 1 0 416 208 208 0 1 1 0-416zm0 464A256 256 0 1 0 256 0a256 256 0 1 0 0 512zM175 175c-9.4 9.4-9.4 24.6 0 33.9l47 47-47 47c-9.4 9.4-9.4 24.6 0 33.9s24.6 9.4 33.9 0l47-47 47 47c9.4 9.4 24.6 9.4 33.9 0s9.4-24.6 0-33.9l-47-47 47-47c9.4-9.4 9.4-24.6 0-33.9s-24.6-9.4-33.9 0l-47 47-47-47c-9.4-9.4-24.6-9.4-33.9 0z"/>
  </symbol>

  <symbol fill="none" xmlns="http://www.w3.org/2000/svg" viewBox="0 0 24 24" id="schema" stroke="currentColor"  stroke-width="2"  stroke-linecap="round"  stroke-linejoin="round">
      <path stroke="none" d="M0 0h24v24H0z" fill="none"/>
      <path d="M5 2h5v4h-5z" />
      <path d="M15 10h5v4h-5z" />
      <path d="M5 18h5v4h-5z" />
      <path d="M5 10h5v4h-5z" />
      <path d="M10 12h5" />
      <path d="M7.5 6v4" />
      <path d="M7.5 14v4" />
  </symbol>

  <symbol fill="none" xmlns="http://www.w3.org/2000/svg" viewBox="0 0 448 512" id="cubes_stacked">
      <path fill="currentColor" d="M192 64l0 64c0 17.7 14.3 32 32 32l64 0c17.7 0 32-14.3 32-32l0-64c0-17.7-14.3-32-32-32l-64 0c-17.7 0-32 14.3-32 32zM82.7 207c-15.3 8.8-20.5 28.4-11.7 43.7l32 55.4c8.8 15.3 28.4 20.5 43.7 11.7l55.4-32c15.3-8.8 20.5-28.4 11.7-43.7l-32-55.4c-8.8-15.3-28.4-20.5-43.7-11.7L82.7 207zM288 192c-17.7 0-32 14.3-32 32l0 64c0 17.7 14.3 32 32 32l64 0c17.7 0 32-14.3 32-32l0-64c0-17.7-14.3-32-32-32l-64 0zm64 160c-17.7 0-32 14.3-32 32l0 64c0 17.7 14.3 32 32 32l64 0c17.7 0 32-14.3 32-32l0-64c0-17.7-14.3-32-32-32l-64 0zM160 384l0 64c0 17.7 14.3 32 32 32l64 0c17.7 0 32-14.3 32-32l0-64c0-17.7-14.3-32-32-32l-64 0c-17.7 0-32 14.3-32 32zM32 352c-17.7 0-32 14.3-32 32l0 64c0 17.7 14.3 32 32 32l64 0c17.7 0 32-14.3 32-32l0-64c0-17.7-14.3-32-32-32l-64 0z"/>
  </symbol>

  <symbol fill="none" xmlns="http://www.w3.org/2000/svg" viewBox="0 0 384 512" id="letter_t">
      <path fill="currentColor" d="M32 32C14.3 32 0 46.3 0 64S14.3 96 32 96l128 0 0 352c0 17.7 14.3 32 32 32s32-14.3 32-32l0-352 128 0c17.7 0 32-14.3 32-32s-14.3-32-32-32L192 32 32 32z"/>
  </symbol>

  <symbol fill="none" xmlns="http://www.w3.org/2000/svg" viewBox="0 0 320 512" id="chevron_right">
      <path fill="currentColor" d="M310.6 233.4c12.5 12.5 12.5 32.8 0 45.3l-192 192c-12.5 12.5-32.8 12.5-45.3 0s-12.5-32.8 0-45.3L242.7 256 73.4 86.6c-12.5-12.5-12.5-32.8 0-45.3s32.8-12.5 45.3 0l192 192z"/>
  </symbol>

  <symbol fill="none" xmlns="http://www.w3.org/2000/svg" viewBox="0 0 24 24" id="box_align_top_left" stroke="currentColor"  stroke-width="2"  stroke-linecap="round"  stroke-linejoin="round">
    <path stroke="none" fill="none" d="M0 0h24v24H0z" />
    <path fill="currentColor" d="M11 5v5a1 1 0 0 1 -1 1h-5a1 1 0 0 1 -1 -1v-5a1 1 0 0 1 1 -1h5a1 1 0 0 1 1 1z" />
    <path fill="none" d="M15 4h-.01" />
    <path fill="none" d="M20 4h-.01" />
    <path fill="none" d="M20 9h-.01" />
    <path fill="none" d="M20 15h-.01" />
    <path fill="none" d="M4 15h-.01" />
    <path fill="none" d="M20 20h-.01" />
    <path fill="none" d="M15 20h-.01" />
    <path fill="none" d="M9 20h-.01" />
    <path fill="none" d="M4 20h-.01" />
  </symbol>

  <symbol fill="none" xmlns="http://www.w3.org/2000/svg" viewBox="0 0 24 24" id="square">
    <path stroke="none" fill="none" d="M0 0h24v24H0z" />
    <path stroke="currentColor" d="M3 3m0 2a2 2 0 0 1 2 -2h14a2 2 0 0 1 2 2v14a2 2 0 0 1 -2 2h-14a2 2 0 0 1 -2 -2z" />
  </symbol>

  <symbol fill="none" xmlns="http://www.w3.org/2000/svg" viewBox="0 0 24 24" id="rectangle">
    <path stroke="none" fill="none" d="M0 0h24v24H0z" />
    <path stroke="currentColor" d="M3 5m0 2a2 2 0 0 1 2 -2h14a2 2 0 0 1 2 2v10a2 2 0 0 1 -2 2h-14a2 2 0 0 1 -2 -2z" />
  </symbol>

  <symbol fill="currentColor" xmlns="http://www.w3.org/2000/svg" viewBox="0 0 24 24" id="typography" stroke="currentColor"  stroke-width="1">
    <path fill="none" stroke="none" d="M0 0h24v24H0z" />
    <path fill="none" d="M4 20l3 0" />
    <path fill="none" d="M14 20l7 0" />
    <path fill="none" d="M6.9 15l6.9 0" />
    <path fill="none" d="M10.2 6.3l5.8 13.7" />
    <path fill="none" d="M5 20l6 -16l2 0l7 16" />
  </symbol>

  <symbol fill="none" xmlns="http://www.w3.org/2000/svg" viewBox="0 0 24 24" id="texture" >
    <path fill="none" stroke="none" d="M0 0h24v24H0z" />
    <path fill="none" stroke="currentColor" d="M6 3l-3 3" />
    <path fill="none" stroke="currentColor" d="M21 18l-3 3" />
    <path fill="none" stroke="currentColor" d="M11 3l-8 8" />
    <path fill="none" stroke="currentColor" d="M16 3l-13 13" />
    <path fill="none" stroke="currentColor" d="M21 3l-18 18" />
    <path fill="none" stroke="currentColor" d="M21 8l-13 13" />
    <path fill="none" stroke="currentColor" d="M21 13l-8 8" />
  </symbol>

  <symbol fill="none" xmlns="http://www.w3.org/2000/svg" viewBox="0 0 24 24" id="tag">
    <path stroke="none" fill="none" d="M0 0h24v24H0z" />
    <path fill="currentColor" stroke="currentColor" stroke-width="2" d="M7.5 7.5m-1 0a1 1 0 1 0 2 0a1 1 0 1 0 -2 0" />
    <path stroke="currentColor" d="M3 6v5.172a2 2 0 0 0 .586 1.414l7.71 7.71a2.41 2.41 0 0 0 3.408 0l5.592 -5.592a2.41 2.41 0 0 0 0 -3.408l-7.71 -7.71a2 2 0 0 0 -1.414 -.586h-5.172a3 3 0 0 0 -3 3z" />
  </symbol>

  <symbol fill="none" xmlns="http://www.w3.org/2000/svg" viewBox="0 0 24 24" id="box_model">
    <path stroke="none" fill="none" d="M0 0h24v24H0z" />
    <path stroke="currentColor" d="M8 8h8v8h-8z" />
    <path stroke="currentColor" d="M4 4m0 2a2 2 0 0 1 2 -2h12a2 2 0 0 1 2 2v12a2 2 0 0 1 -2 2h-12a2 2 0 0 1 -2 -2z" />
    <path stroke="currentColor" d="M16 16l3.3 3.3" />
    <path stroke="currentColor" d="M16 8l3.3 -3.3" />
    <path stroke="currentColor" d="M8 8l-3.3 -3.3" />
    <path stroke="currentColor" d="M8 16l-3.3 3.3" />
  </symbol>

  <symbol fill="none" xmlns="http://www.w3.org/2000/svg" viewBox="0 0 24 24" id="percentage_0">
    <path fill="none" stroke="none" d="M0 0h24v24H0z" />
    <path stroke="currentColor" d="M3 12a9 9 0 1 0 18 0a9 9 0 0 0 -18 0" />
  </symbol>

  <symbol fill="none" xmlns="http://www.w3.org/2000/svg" viewBox="0 0 24 24" id="ghost_3" stroke-linecap="round"  stroke-linejoin="round">
    <path fill="none" stroke="none" d="M0 0h24v24H0z" />
    <path stroke="currentColor" d="M5 11a7 7 0 0 1 14 0v7a1.78 1.78 0 0 1 -3.1 1.4a1.65 1.65 0 0 0 -2.6 0a1.65 1.65 0 0 1 -2.6 0a1.65 1.65 0 0 0 -2.6 0a1.78 1.78 0 0 1 -3.1 -1.4v-7" />
    <path stroke="currentColor" stroke-width="2" d="M10 10h.01" />
    <path stroke="currentColor" stroke-width="2" d="M14 10h.01" />
  </symbol>

  <symbol fill="none" xmlns="http://www.w3.org/2000/svg" viewBox="0 0 24 24" id="photo_sensor" stroke="currentColor" stroke-width="1">
    <path fill="none" stroke="none" d="M0 0h24v24H0z" />
    <path fill="none" d="M17 5h2a2 2 0 0 1 2 2v2" />
    <path fill="none" d="M21 15v2a2 2 0 0 1 -2 2h-2" />
    <path fill="none" d="M7 19h-2a2 2 0 0 1 -2 -2v-2" />
    <path fill="none" d="M3 9v-2a2 2 0 0 1 2 -2h2" />
    <path fill="none" d="M7 9m0 1a1 1 0 0 1 1 -1h8a1 1 0 0 1 1 1v4a1 1 0 0 1 -1 1h-8a1 1 0 0 1 -1 -1z" />
  </symbol>



</svg>